<mxfile host="app.diagrams.net" modified="2023-09-17T22:38:24.894Z" agent="Mozilla/5.0 (Windows NT 10.0; Win64; x64; rv:109.0) Gecko/20100101 Firefox/117.0" etag="We-sLdmYC_0fRj_8lnoD" version="21.7.5" type="device">
  <diagram name="Page-1" id="OlqBnUwk3KztyvGKh9nq">
    <mxGraphModel dx="1430" dy="566" grid="1" gridSize="10" guides="1" tooltips="1" connect="1" arrows="1" fold="1" page="1" pageScale="1" pageWidth="850" pageHeight="1100" math="0" shadow="0">
      <root>
        <mxCell id="0" />
        <mxCell id="1" parent="0" />
        <mxCell id="B4_2UU9hX-lREhk-K9O6-1" value="User" style="shape=module;align=left;spacingLeft=20;align=center;verticalAlign=top;whiteSpace=wrap;html=1;" vertex="1" parent="1">
          <mxGeometry x="188" y="410" width="100" height="50" as="geometry" />
        </mxCell>
        <mxCell id="B4_2UU9hX-lREhk-K9O6-7" value="Vehicle" style="shape=module;align=left;spacingLeft=20;align=center;verticalAlign=top;whiteSpace=wrap;html=1;" vertex="1" parent="1">
          <mxGeometry x="563" y="410" width="100" height="50" as="geometry" />
        </mxCell>
        <mxCell id="B4_2UU9hX-lREhk-K9O6-9" value="" style="rounded=0;orthogonalLoop=1;jettySize=auto;html=1;endArrow=halfCircle;endFill=0;endSize=6;strokeWidth=1;sketch=0;exitX=0.75;exitY=0;exitDx=0;exitDy=0;" edge="1" parent="1" source="B4_2UU9hX-lREhk-K9O6-7" target="B4_2UU9hX-lREhk-K9O6-11">
          <mxGeometry relative="1" as="geometry">
            <mxPoint x="708" y="315" as="sourcePoint" />
          </mxGeometry>
        </mxCell>
        <mxCell id="B4_2UU9hX-lREhk-K9O6-10" value="" style="rounded=0;orthogonalLoop=1;jettySize=auto;html=1;endArrow=oval;endFill=0;sketch=0;sourcePerimeterSpacing=0;targetPerimeterSpacing=0;endSize=10;exitX=1;exitY=0.5;exitDx=0;exitDy=0;" edge="1" parent="1" source="B4_2UU9hX-lREhk-K9O6-26" target="B4_2UU9hX-lREhk-K9O6-11">
          <mxGeometry relative="1" as="geometry">
            <mxPoint x="583" y="315" as="sourcePoint" />
          </mxGeometry>
        </mxCell>
        <mxCell id="B4_2UU9hX-lREhk-K9O6-11" value="" style="ellipse;whiteSpace=wrap;html=1;align=center;aspect=fixed;fillColor=none;strokeColor=none;resizable=0;perimeter=centerPerimeter;rotatable=0;allowArrows=0;points=[];outlineConnect=1;" vertex="1" parent="1">
          <mxGeometry x="633" y="310" width="10" height="10" as="geometry" />
        </mxCell>
        <mxCell id="B4_2UU9hX-lREhk-K9O6-12" value="&lt;div&gt;User&amp;nbsp;&lt;/div&gt;&lt;div&gt;view&lt;/div&gt;" style="shape=module;align=left;spacingLeft=20;align=center;verticalAlign=top;whiteSpace=wrap;html=1;" vertex="1" parent="1">
          <mxGeometry x="188" y="540" width="100" height="50" as="geometry" />
        </mxCell>
        <mxCell id="B4_2UU9hX-lREhk-K9O6-13" value="" style="rounded=0;orthogonalLoop=1;jettySize=auto;html=1;endArrow=halfCircle;endFill=0;endSize=6;strokeWidth=1;sketch=0;exitX=0.75;exitY=0;exitDx=0;exitDy=0;" edge="1" parent="1" source="B4_2UU9hX-lREhk-K9O6-12">
          <mxGeometry relative="1" as="geometry">
            <mxPoint x="308" y="505" as="sourcePoint" />
            <mxPoint x="263" y="500" as="targetPoint" />
          </mxGeometry>
        </mxCell>
        <mxCell id="B4_2UU9hX-lREhk-K9O6-14" value="" style="rounded=0;orthogonalLoop=1;jettySize=auto;html=1;endArrow=oval;endFill=0;sketch=0;sourcePerimeterSpacing=0;targetPerimeterSpacing=0;endSize=10;exitX=0.75;exitY=1;exitDx=0;exitDy=0;" edge="1" parent="1" source="B4_2UU9hX-lREhk-K9O6-1">
          <mxGeometry relative="1" as="geometry">
            <mxPoint x="268" y="505" as="sourcePoint" />
            <mxPoint x="263" y="500" as="targetPoint" />
          </mxGeometry>
        </mxCell>
        <mxCell id="B4_2UU9hX-lREhk-K9O6-15" value="" style="ellipse;whiteSpace=wrap;html=1;align=center;aspect=fixed;fillColor=none;strokeColor=none;resizable=0;perimeter=centerPerimeter;rotatable=0;allowArrows=0;points=[];outlineConnect=1;" vertex="1" parent="1">
          <mxGeometry x="283" y="500" width="10" height="10" as="geometry" />
        </mxCell>
        <mxCell id="B4_2UU9hX-lREhk-K9O6-16" value="&lt;div&gt;Vehicle&lt;/div&gt;&lt;div&gt;View&lt;/div&gt;" style="shape=module;align=left;spacingLeft=20;align=center;verticalAlign=top;whiteSpace=wrap;html=1;" vertex="1" parent="1">
          <mxGeometry x="563" y="540" width="100" height="50" as="geometry" />
        </mxCell>
        <mxCell id="B4_2UU9hX-lREhk-K9O6-17" value="" style="rounded=0;orthogonalLoop=1;jettySize=auto;html=1;endArrow=halfCircle;endFill=0;endSize=6;strokeWidth=1;sketch=0;exitX=0.75;exitY=0;exitDx=0;exitDy=0;" edge="1" parent="1">
          <mxGeometry relative="1" as="geometry">
            <mxPoint x="637.71" y="540" as="sourcePoint" />
            <mxPoint x="638" y="500" as="targetPoint" />
          </mxGeometry>
        </mxCell>
        <mxCell id="B4_2UU9hX-lREhk-K9O6-18" value="" style="rounded=0;orthogonalLoop=1;jettySize=auto;html=1;endArrow=oval;endFill=0;sketch=0;sourcePerimeterSpacing=0;targetPerimeterSpacing=0;endSize=10;exitX=0.75;exitY=1;exitDx=0;exitDy=0;" edge="1" parent="1" source="B4_2UU9hX-lREhk-K9O6-7">
          <mxGeometry relative="1" as="geometry">
            <mxPoint x="428" y="470" as="sourcePoint" />
            <mxPoint x="638" y="500" as="targetPoint" />
          </mxGeometry>
        </mxCell>
        <mxCell id="B4_2UU9hX-lREhk-K9O6-19" value="" style="rounded=0;orthogonalLoop=1;jettySize=auto;html=1;endArrow=halfCircle;endFill=0;endSize=6;strokeWidth=1;sketch=0;exitX=0.106;exitY=0.489;exitDx=0;exitDy=0;exitPerimeter=0;" edge="1" parent="1" source="B4_2UU9hX-lREhk-K9O6-22">
          <mxGeometry relative="1" as="geometry">
            <mxPoint x="343" y="434.71" as="sourcePoint" />
            <mxPoint x="308" y="435" as="targetPoint" />
          </mxGeometry>
        </mxCell>
        <mxCell id="B4_2UU9hX-lREhk-K9O6-20" value="" style="rounded=0;orthogonalLoop=1;jettySize=auto;html=1;endArrow=oval;endFill=0;sketch=0;sourcePerimeterSpacing=0;targetPerimeterSpacing=0;endSize=10;" edge="1" parent="1">
          <mxGeometry relative="1" as="geometry">
            <mxPoint x="288" y="435" as="sourcePoint" />
            <mxPoint x="308" y="435" as="targetPoint" />
          </mxGeometry>
        </mxCell>
        <mxCell id="B4_2UU9hX-lREhk-K9O6-21" value="" style="ellipse;whiteSpace=wrap;html=1;align=center;aspect=fixed;fillColor=none;strokeColor=none;resizable=0;perimeter=centerPerimeter;rotatable=0;allowArrows=0;points=[];outlineConnect=1;" vertex="1" parent="1">
          <mxGeometry x="343" y="430" width="10" height="10" as="geometry" />
        </mxCell>
        <mxCell id="B4_2UU9hX-lREhk-K9O6-22" value="Order" style="shape=module;align=left;spacingLeft=20;align=center;verticalAlign=top;whiteSpace=wrap;html=1;" vertex="1" parent="1">
          <mxGeometry x="363" y="410" width="100" height="50" as="geometry" />
        </mxCell>
        <mxCell id="B4_2UU9hX-lREhk-K9O6-23" value="" style="rounded=0;orthogonalLoop=1;jettySize=auto;html=1;endArrow=halfCircle;endFill=0;endSize=6;strokeWidth=1;sketch=0;exitX=1;exitY=0.5;exitDx=0;exitDy=0;" edge="1" target="B4_2UU9hX-lREhk-K9O6-25" parent="1" source="B4_2UU9hX-lREhk-K9O6-22">
          <mxGeometry relative="1" as="geometry">
            <mxPoint x="538" y="445" as="sourcePoint" />
          </mxGeometry>
        </mxCell>
        <mxCell id="B4_2UU9hX-lREhk-K9O6-24" value="" style="rounded=0;orthogonalLoop=1;jettySize=auto;html=1;endArrow=oval;endFill=0;sketch=0;sourcePerimeterSpacing=0;targetPerimeterSpacing=0;endSize=10;exitX=0.106;exitY=0.489;exitDx=0;exitDy=0;exitPerimeter=0;" edge="1" target="B4_2UU9hX-lREhk-K9O6-25" parent="1" source="B4_2UU9hX-lREhk-K9O6-7">
          <mxGeometry relative="1" as="geometry">
            <mxPoint x="498" y="445" as="sourcePoint" />
          </mxGeometry>
        </mxCell>
        <mxCell id="B4_2UU9hX-lREhk-K9O6-25" value="" style="ellipse;whiteSpace=wrap;html=1;align=center;aspect=fixed;fillColor=none;strokeColor=none;resizable=0;perimeter=centerPerimeter;rotatable=0;allowArrows=0;points=[];outlineConnect=1;" vertex="1" parent="1">
          <mxGeometry x="513" y="430" width="10" height="10" as="geometry" />
        </mxCell>
        <mxCell id="B4_2UU9hX-lREhk-K9O6-26" value="Rental Database" style="shape=module;align=left;spacingLeft=20;align=center;verticalAlign=top;whiteSpace=wrap;html=1;" vertex="1" parent="1">
          <mxGeometry x="363" y="290" width="100" height="50" as="geometry" />
        </mxCell>
        <mxCell id="B4_2UU9hX-lREhk-K9O6-28" value="" style="rounded=0;orthogonalLoop=1;jettySize=auto;html=1;endArrow=oval;endFill=0;sketch=0;sourcePerimeterSpacing=0;targetPerimeterSpacing=0;endSize=10;exitX=0.11;exitY=0.511;exitDx=0;exitDy=0;exitPerimeter=0;" edge="1" parent="1" source="B4_2UU9hX-lREhk-K9O6-26">
          <mxGeometry relative="1" as="geometry">
            <mxPoint x="364" y="314.5" as="sourcePoint" />
            <mxPoint x="238" y="315" as="targetPoint" />
          </mxGeometry>
        </mxCell>
        <mxCell id="B4_2UU9hX-lREhk-K9O6-35" value="Persistence" style="edgeLabel;html=1;align=center;verticalAlign=middle;resizable=0;points=[];" vertex="1" connectable="0" parent="B4_2UU9hX-lREhk-K9O6-28">
          <mxGeometry x="-0.1283" relative="1" as="geometry">
            <mxPoint x="-14" y="-15" as="offset" />
          </mxGeometry>
        </mxCell>
        <mxCell id="B4_2UU9hX-lREhk-K9O6-29" value="" style="rounded=0;orthogonalLoop=1;jettySize=auto;html=1;endArrow=halfCircle;endFill=0;endSize=6;strokeWidth=1;sketch=0;exitX=0.75;exitY=0;exitDx=0;exitDy=0;" edge="1" parent="1">
          <mxGeometry relative="1" as="geometry">
            <mxPoint x="237.71" y="410" as="sourcePoint" />
            <mxPoint x="237.71" y="320" as="targetPoint" />
          </mxGeometry>
        </mxCell>
        <mxCell id="B4_2UU9hX-lREhk-K9O6-30" value="&lt;div&gt;Order&amp;nbsp;&lt;/div&gt;&lt;div&gt;View&lt;/div&gt;" style="shape=module;align=left;spacingLeft=20;align=center;verticalAlign=top;whiteSpace=wrap;html=1;" vertex="1" parent="1">
          <mxGeometry x="363" y="540" width="100" height="50" as="geometry" />
        </mxCell>
        <mxCell id="B4_2UU9hX-lREhk-K9O6-31" value="" style="rounded=0;orthogonalLoop=1;jettySize=auto;html=1;endArrow=halfCircle;endFill=0;endSize=6;strokeWidth=1;sketch=0;exitX=0.75;exitY=0;exitDx=0;exitDy=0;" edge="1" parent="1">
          <mxGeometry relative="1" as="geometry">
            <mxPoint x="428" y="540" as="sourcePoint" />
            <mxPoint x="428" y="500" as="targetPoint" />
          </mxGeometry>
        </mxCell>
        <mxCell id="B4_2UU9hX-lREhk-K9O6-32" value="" style="rounded=0;orthogonalLoop=1;jettySize=auto;html=1;endArrow=oval;endFill=0;sketch=0;sourcePerimeterSpacing=0;targetPerimeterSpacing=0;endSize=10;exitX=0.75;exitY=1;exitDx=0;exitDy=0;" edge="1" parent="1">
          <mxGeometry relative="1" as="geometry">
            <mxPoint x="428" y="460" as="sourcePoint" />
            <mxPoint x="428" y="500" as="targetPoint" />
          </mxGeometry>
        </mxCell>
        <mxCell id="B4_2UU9hX-lREhk-K9O6-33" value="" style="rounded=0;orthogonalLoop=1;jettySize=auto;html=1;endArrow=halfCircle;endFill=0;endSize=6;strokeWidth=1;sketch=0;exitX=0.75;exitY=0;exitDx=0;exitDy=0;" edge="1" parent="1">
          <mxGeometry relative="1" as="geometry">
            <mxPoint x="427.76" y="410" as="sourcePoint" />
            <mxPoint x="428" y="390" as="targetPoint" />
          </mxGeometry>
        </mxCell>
        <mxCell id="B4_2UU9hX-lREhk-K9O6-34" value="" style="rounded=0;orthogonalLoop=1;jettySize=auto;html=1;endArrow=oval;endFill=0;sketch=0;sourcePerimeterSpacing=0;targetPerimeterSpacing=0;endSize=10;" edge="1" parent="1">
          <mxGeometry relative="1" as="geometry">
            <mxPoint x="428" y="340" as="sourcePoint" />
            <mxPoint x="428" y="390" as="targetPoint" />
          </mxGeometry>
        </mxCell>
        <mxCell id="B4_2UU9hX-lREhk-K9O6-37" value="Persistence" style="edgeLabel;html=1;align=center;verticalAlign=middle;resizable=0;points=[];" vertex="1" connectable="0" parent="1">
          <mxGeometry x="557.997646484139" y="300.00008935546765" as="geometry" />
        </mxCell>
        <mxCell id="B4_2UU9hX-lREhk-K9O6-38" value="Persistence" style="edgeLabel;html=1;align=center;verticalAlign=middle;resizable=0;points=[];" vertex="1" connectable="0" parent="1">
          <mxGeometry x="427.99764648413895" y="360.00008935546765" as="geometry" />
        </mxCell>
        <mxCell id="B4_2UU9hX-lREhk-K9O6-42" style="edgeStyle=orthogonalEdgeStyle;rounded=0;orthogonalLoop=1;jettySize=auto;html=1;entryX=0.5;entryY=0;entryDx=0;entryDy=0;endArrow=open;endFill=0;dashed=1;" edge="1" parent="1" source="B4_2UU9hX-lREhk-K9O6-39" target="B4_2UU9hX-lREhk-K9O6-40">
          <mxGeometry relative="1" as="geometry" />
        </mxCell>
        <mxCell id="B4_2UU9hX-lREhk-K9O6-39" value="Rental View" style="shape=module;align=left;spacingLeft=20;align=center;verticalAlign=top;whiteSpace=wrap;html=1;" vertex="1" parent="1">
          <mxGeometry x="188" y="640" width="470" height="50" as="geometry" />
        </mxCell>
        <mxCell id="B4_2UU9hX-lREhk-K9O6-40" value="Client" style="shape=module;align=left;spacingLeft=20;align=center;verticalAlign=top;whiteSpace=wrap;html=1;" vertex="1" parent="1">
          <mxGeometry x="373" y="760" width="100" height="50" as="geometry" />
        </mxCell>
        <mxCell id="B4_2UU9hX-lREhk-K9O6-46" value="" style="rounded=0;orthogonalLoop=1;jettySize=auto;html=1;endArrow=halfCircle;endFill=0;endSize=6;strokeWidth=1;sketch=0;" edge="1" parent="1">
          <mxGeometry relative="1" as="geometry">
            <mxPoint x="268" y="640" as="sourcePoint" />
            <mxPoint x="268" y="610" as="targetPoint" />
          </mxGeometry>
        </mxCell>
        <mxCell id="B4_2UU9hX-lREhk-K9O6-47" value="" style="rounded=0;orthogonalLoop=1;jettySize=auto;html=1;endArrow=oval;endFill=0;sketch=0;sourcePerimeterSpacing=0;targetPerimeterSpacing=0;endSize=10;exitX=0.75;exitY=1;exitDx=0;exitDy=0;" edge="1" parent="1">
          <mxGeometry relative="1" as="geometry">
            <mxPoint x="268" y="590" as="sourcePoint" />
            <mxPoint x="268" y="610" as="targetPoint" />
          </mxGeometry>
        </mxCell>
        <mxCell id="B4_2UU9hX-lREhk-K9O6-48" value="" style="rounded=0;orthogonalLoop=1;jettySize=auto;html=1;endArrow=halfCircle;endFill=0;endSize=6;strokeWidth=1;sketch=0;" edge="1" parent="1">
          <mxGeometry relative="1" as="geometry">
            <mxPoint x="427.81" y="640" as="sourcePoint" />
            <mxPoint x="427.81" y="610" as="targetPoint" />
          </mxGeometry>
        </mxCell>
        <mxCell id="B4_2UU9hX-lREhk-K9O6-49" value="" style="rounded=0;orthogonalLoop=1;jettySize=auto;html=1;endArrow=oval;endFill=0;sketch=0;sourcePerimeterSpacing=0;targetPerimeterSpacing=0;endSize=10;exitX=0.75;exitY=1;exitDx=0;exitDy=0;" edge="1" parent="1">
          <mxGeometry relative="1" as="geometry">
            <mxPoint x="427.81" y="590" as="sourcePoint" />
            <mxPoint x="427.81" y="610" as="targetPoint" />
          </mxGeometry>
        </mxCell>
        <mxCell id="B4_2UU9hX-lREhk-K9O6-50" value="" style="rounded=0;orthogonalLoop=1;jettySize=auto;html=1;endArrow=halfCircle;endFill=0;endSize=6;strokeWidth=1;sketch=0;" edge="1" parent="1">
          <mxGeometry relative="1" as="geometry">
            <mxPoint x="637.86" y="640" as="sourcePoint" />
            <mxPoint x="637.86" y="610" as="targetPoint" />
          </mxGeometry>
        </mxCell>
        <mxCell id="B4_2UU9hX-lREhk-K9O6-51" value="" style="rounded=0;orthogonalLoop=1;jettySize=auto;html=1;endArrow=oval;endFill=0;sketch=0;sourcePerimeterSpacing=0;targetPerimeterSpacing=0;endSize=10;exitX=0.75;exitY=1;exitDx=0;exitDy=0;" edge="1" parent="1">
          <mxGeometry relative="1" as="geometry">
            <mxPoint x="637.86" y="590" as="sourcePoint" />
            <mxPoint x="637.86" y="610" as="targetPoint" />
          </mxGeometry>
        </mxCell>
      </root>
    </mxGraphModel>
  </diagram>
</mxfile>
